<svg width="130" height="26" viewBox="0 0 130 26" fill="none" xmlns="http://www.w3.org/2000/svg">
<g clip-path="url(#clip0_443_4902)">
<path d="M84.5525 19.24V4.4075H81.45V6.8725L80.9225 6.22C79.8625 4.96 78.5325 4.255 76.7075 4.255C72.7125 4.255 69.46 7.54 69.46 11.71C69.46 15.88 72.4825 19.24 76.34 19.24C78.54 19.24 80.2425 17.99 81.04 16.83L81.4475 16.235V19.2425H84.55L84.5525 19.24ZM77.0775 16.2375C74.565 16.2375 72.6 14.305 72.6 11.71C72.6 9.115 74.5675 7.1525 77.0775 7.1525C79.5875 7.1525 81.415 9.185 81.415 11.71C81.415 14.235 79.5725 16.2375 77.0775 16.2375Z" fill="#00D094"/>
<path d="M52.6925 15.765C51.02 16.3075 49.655 16.2875 48.8375 15.715C48.3375 15.3625 48.06 14.815 48.06 14.1725V7.55748H52.3775L52.3975 4.38998H48.06V0.107483L44.8425 1.03748V14.2025C44.8425 15.9725 45.4475 17.365 46.59 18.2325C48.0225 19.3125 50.18 19.535 52.6925 18.86V15.765Z" fill="#00D094"/>
<path d="M16.3825 0H0.75V3.1775H7V19.2225H10.36V3.1775H16.3825V0Z" fill="#00D094"/>
<path d="M42.76 14.9325C42.76 12.7325 41.2775 11.33 38.0975 10.52C37.6825 10.4175 37.2875 10.3325 36.8525 10.24C35.17 9.88251 33.84 9.60001 33.84 8.48501C33.84 7.50001 34.9 6.83751 36.4775 6.83751C38.055 6.83751 39.8625 7.40251 42.05 8.51501V5.52001C40.495 4.63751 38.4675 4.13501 36.4775 4.13501C32.835 4.13501 30.48 5.85251 30.48 8.51251C30.48 10.7425 31.96 11.9625 35.5875 12.725C38.0225 13.2325 39.43 13.7475 39.43 14.875C39.43 16.0025 38.12 16.465 36.82 16.465C34.8075 16.465 32.3775 15.3875 30.9075 14.3575V17.505C32.8225 18.6475 34.81 19.225 36.82 19.225C39.6925 19.225 42.7625 18.0975 42.7625 14.9325H42.76Z" fill="#00D094"/>
<path d="M65.635 4.40747L61.565 17.755L57.465 4.40747H54.02L58.945 19.2225H64.155L69.1125 4.40747H65.635Z" fill="#00D094"/>
<path d="M90.66 0H87.415V19.24H90.66V0Z" fill="#00D094"/>
<path d="M96.82 0H93.575V19.24H96.82V0Z" fill="#00D094"/>
<path d="M125.725 4.40747L121.677 15.495L117.395 4.40747H114.002L120.042 19.2325L120.007 19.32L117.785 25.0925H121.075L129.095 4.40747H125.725Z" fill="#00D094"/>
<path d="M25.4599 14.3525C24.7449 15.2175 23.7324 15.915 22.6224 16.235C20.4774 16.845 18.5399 16.095 17.5674 14.2575L17.4349 14.0125L17.7024 13.9375L28.7749 10.74C28.7074 9.93003 28.4524 9.13003 27.9974 8.28753C26.7024 5.73753 24.1274 4.15253 21.2799 4.15253C20.5799 4.15253 19.8874 4.25003 19.2199 4.44253C15.2299 5.59753 12.9224 9.79253 14.0799 13.795C15.2299 17.7775 19.4024 20.085 23.4074 18.9425C25.4749 18.345 27.7824 16.615 28.6674 14.35H25.4624L25.4599 14.3525ZM16.8524 11.59C16.6949 9.86253 17.4099 7.75253 19.8774 7.01753C23.0924 6.08253 24.5674 8.24753 25.0574 9.22753L25.0799 9.27253L16.8599 11.645L16.8549 11.5925L16.8524 11.59Z" fill="#00D094"/>
<path d="M110.64 14.3525C109.925 15.2175 108.913 15.915 107.803 16.235C105.658 16.845 103.72 16.095 102.748 14.2575L102.615 14.0125L102.883 13.9375L113.955 10.74C113.888 9.93003 113.633 9.13003 113.178 8.28753C111.883 5.73753 109.308 4.15253 106.46 4.15253C105.76 4.15253 105.068 4.25003 104.4 4.44253C100.41 5.59753 98.1026 9.79253 99.2601 13.795C100.41 17.7775 104.583 20.085 108.588 18.9425C110.655 18.345 112.963 16.615 113.848 14.35H110.643L110.64 14.3525ZM102.033 11.59C101.875 9.86253 102.59 7.75253 105.058 7.01753C108.273 6.08253 109.748 8.24753 110.238 9.22753L110.26 9.27253L102.04 11.645L102.035 11.5925L102.033 11.59Z" fill="#00D094"/>
</g>
<defs>
<clipPath id="clip0_443_4902">
<rect width="128.345" height="25.0925" fill="white" transform="translate(0.75)"/>
</clipPath>
</defs>
</svg>
