<svg xmlns="http://www.w3.org/2000/svg" width="18" height="20" viewBox="0 0 18 20" fill="none">
    <path fill-rule="evenodd" clip-rule="evenodd" d="M14.4 8.5C14.4 12.0346 11.5346 14.9 8 14.9C4.46538 14.9 1.6 12.0346 1.6 8.5C1.6 4.96538 4.46538 2.1 8 2.1C11.5346 2.1 14.4 4.96538 14.4 8.5ZM12.49 15.1221C11.2098 15.9918 9.66426 16.5 8 16.5C3.58172 16.5 0 12.9183 0 8.5C0 4.08172 3.58172 0.5 8 0.5C12.4183 0.5 16 4.08172 16 8.5C16 10.6759 15.1313 12.649 13.7218 14.0912L17.5649 17.9343C17.8773 18.2467 17.8773 18.7533 17.5649 19.0657C17.2525 19.3781 16.746 19.3781 16.4335 19.0657L12.49 15.1221Z" fill="#666666"/>
</svg>